<svg width="120" height="40" viewBox="0 0 120 40" fill="none" xmlns="http://www.w3.org/2000/svg">
<path d="M110.471 0.00013H9.87062C9.50392 0.00013 9.14162 0.00013 8.77589 0.00213C8.46974 0.00413 8.16603 0.00994 7.85694 0.01483C7.18545 0.0227318 6.51554 0.0818063 5.85304 0.19154C5.19146 0.303663 4.55061 0.515046 3.95216 0.81854C3.35444 1.1246 2.80828 1.5223 2.33351 1.9972C1.85624 2.47077 1.4584 3.01815 1.15529 3.61829C0.851338 4.21724 0.640578 4.85907 0.530288 5.52161C0.418948 6.18332 0.359036 6.85265 0.351088 7.52361C0.341808 7.83021 0.340827 8.13783 0.335938 8.44447V31.5587C0.340827 31.8692 0.341808 32.17 0.351088 32.4806C0.359038 33.1516 0.418951 33.8209 0.530288 34.4825C0.640273 35.1455 0.851046 35.7877 1.15529 36.3868C1.45826 36.985 1.85616 37.5302 2.33351 38.0011C2.80648 38.4781 3.35299 38.8761 3.95216 39.1798C4.55061 39.4841 5.19139 39.6968 5.85304 39.8106C6.51566 39.9195 7.18549 39.9786 7.85694 39.9874C8.16603 39.9942 8.46974 39.9981 8.77589 39.9981C9.14161 40.0001 9.50394 40.0001 9.87062 40.0001H110.471C110.83 40.0001 111.195 40.0001 111.555 39.9981C111.859 39.9981 112.172 39.9942 112.477 39.9874C113.147 39.9791 113.815 39.92 114.477 39.8106C115.14 39.696 115.783 39.4834 116.385 39.1798C116.983 38.8759 117.529 38.478 118.002 38.0011C118.478 37.5284 118.877 36.9836 119.184 36.3868C119.486 35.7872 119.694 35.1451 119.803 34.4825C119.914 33.8208 119.976 33.1516 119.988 32.4806C119.992 32.17 119.992 31.8692 119.992 31.5587C120 31.1954 120 30.8341 120 30.4649V9.53626C120 9.17005 120 8.80677 119.992 8.44447C119.992 8.13783 119.992 7.83021 119.988 7.52357C119.976 6.85255 119.914 6.18337 119.803 5.52157C119.694 4.85941 119.485 4.21763 119.184 3.61825C118.566 2.41533 117.588 1.43616 116.385 0.81845C115.783 0.515697 115.14 0.30437 114.477 0.19145C113.815 0.0812328 113.147 0.0221378 112.477 0.01469C112.172 0.00981 111.859 0.00395 111.555 0.002C111.195 0 110.83 0 110.471 0V0.00013Z" fill="#A6A6A6"/>
<path d="M8.7808 39.125C8.47612 39.125 8.1788 39.1211 7.87651 39.1143C7.2503 39.1061 6.62554 39.0516 6.00737 38.9512C5.43096 38.8519 4.87258 38.6673 4.35063 38.4033C3.83348 38.1415 3.36179 37.7983 2.95363 37.3867C2.53957 36.98 2.19485 36.5082 1.93312 35.9902C1.66851 35.4688 1.48539 34.9099 1.39012 34.333C1.28725 33.7131 1.23159 33.0863 1.22362 32.458C1.21728 32.2471 1.20898 31.5449 1.20898 31.5449V8.44434C1.20898 8.44434 1.21782 7.75293 1.22367 7.5498C1.2313 6.92248 1.28664 6.29665 1.3892 5.67773C1.48464 5.09925 1.66791 4.53875 1.93266 4.01563C2.19343 3.49794 2.53624 3.02586 2.9478 2.61768C3.35891 2.20562 3.83211 1.8606 4.35014 1.59521C4.87089 1.33209 5.42822 1.14873 6.00346 1.05127C6.62366 0.949836 7.25059 0.894996 7.87897 0.88721L8.78129 0.875H111.55L112.463 0.8877C113.086 0.895099 113.707 0.94945 114.321 1.05029C114.902 1.14898 115.466 1.33362 115.992 1.59814C117.03 2.13299 117.875 2.97916 118.407 4.01807C118.668 4.53758 118.848 5.09351 118.942 5.66699C119.046 6.29099 119.104 6.92174 119.116 7.5542C119.119 7.8374 119.119 8.1416 119.119 8.44434C119.127 8.81934 119.127 9.17627 119.127 9.53613V30.4648C119.127 30.8281 119.127 31.1826 119.119 31.54C119.119 31.8652 119.119 32.1631 119.115 32.4697C119.104 33.0909 119.046 33.7104 118.944 34.3232C118.851 34.9043 118.669 35.4675 118.404 35.9932C118.141 36.5056 117.798 36.9733 117.389 37.3789C116.98 37.7927 116.508 38.1379 115.989 38.4014C115.464 38.6674 114.902 38.8527 114.321 38.9512C113.703 39.0522 113.078 39.1067 112.452 39.1143C112.159 39.1211 111.853 39.125 111.555 39.125L110.471 39.127L8.7808 39.125Z" fill="black"/>
<path d="M25.104 20.3013C25.1147 19.4666 25.3364 18.6483 25.7484 17.9223C26.1605 17.1964 26.7494 16.5864 27.4605 16.1492C27.0088 15.5041 26.4128 14.9731 25.72 14.5986C25.0272 14.224 24.2566 14.0162 23.4694 13.9916C21.7901 13.8153 20.1622 14.9964 19.3065 14.9964C18.4342 14.9964 17.1167 14.0091 15.698 14.0383C14.7803 14.0679 13.8859 14.3348 13.1021 14.8128C12.3182 15.2909 11.6715 15.9638 11.225 16.7661C9.29103 20.1145 10.7336 25.0356 12.5862 27.7422C13.5131 29.0676 14.5964 30.548 16.0139 30.4955C17.4009 30.438 17.919 29.611 19.5933 29.611C21.252 29.611 21.7381 30.4955 23.1843 30.4621C24.6726 30.438 25.6104 29.1309 26.5048 27.793C27.1707 26.8486 27.6832 25.8049 28.0232 24.7005C27.1585 24.3347 26.4206 23.7226 25.9014 22.9403C25.3823 22.158 25.105 21.2402 25.104 20.3013Z" fill="white"/>
<path d="M22.3716 12.2113C23.1831 11.2371 23.5829 9.98494 23.4861 8.7207C22.2462 8.85092 21.101 9.44348 20.2785 10.3803C19.8764 10.838 19.5684 11.3704 19.3721 11.9472C19.1759 12.524 19.0952 13.1337 19.1348 13.7417C19.7549 13.7481 20.3684 13.6137 20.9291 13.3486C21.4898 13.0835 21.983 12.6946 22.3716 12.2113Z" fill="white"/>
<path d="M42.6367 27.1397H37.9033L36.7666 30.4961H34.7617L39.2451 18.0781H41.3281L45.8115 30.4961H43.7724L42.6367 27.1397ZM38.3936 25.5908H42.1455L40.2959 20.1436H40.2442L38.3936 25.5908Z" fill="white"/>
<path d="M55.4932 25.9695C55.4932 28.7829 53.9873 30.5905 51.7149 30.5905C51.1392 30.6207 50.5667 30.4881 50.0629 30.2079C49.5591 29.9278 49.1444 29.5114 48.8662 29.0065H48.8232V33.4909H46.9648V21.4421H48.7637V22.948H48.7979C49.0888 22.4455 49.5106 22.0313 50.0182 21.7495C50.5258 21.4676 51.1004 21.3287 51.6807 21.3474C53.9785 21.3474 55.4932 23.1638 55.4932 25.9695ZM53.583 25.9695C53.583 24.1365 52.6358 22.9314 51.1905 22.9314C49.7705 22.9314 48.8155 24.1618 48.8155 25.9695C48.8155 27.7937 49.7705 29.0154 51.1905 29.0154C52.6358 29.0154 53.583 27.8191 53.583 25.9695Z" fill="white"/>
<path d="M65.458 25.9694C65.458 28.7829 63.9522 30.5905 61.6797 30.5905C61.1041 30.6206 60.5316 30.488 60.0278 30.2079C59.524 29.9278 59.1093 29.5114 58.8311 29.0065H58.7881V33.4909H56.9297V21.4421H58.7285V22.948H58.7627C59.0536 22.4455 59.4754 22.0313 59.983 21.7495C60.4906 21.4676 61.0652 21.3287 61.6455 21.3474C63.9434 21.3474 65.458 23.1638 65.458 25.9694ZM63.5479 25.9694C63.5479 24.1364 62.6006 22.9314 61.1553 22.9314C59.7354 22.9314 58.7803 24.1618 58.7803 25.9694C58.7803 27.7937 59.7354 29.0153 61.1553 29.0153C62.6006 29.0153 63.5479 27.8191 63.5479 25.9694H63.5479Z" fill="white"/>
<path d="M72.045 27.0362C72.1827 28.2676 73.379 29.0762 75.0137 29.0762C76.5801 29.0762 77.7071 28.2676 77.7071 27.1572C77.7071 26.1934 77.0274 25.6162 75.418 25.2207L73.8086 24.833C71.5284 24.2822 70.4698 23.2158 70.4698 21.4854C70.4698 19.3428 72.337 17.8711 74.9883 17.8711C77.6123 17.8711 79.4112 19.3428 79.4717 21.4854H77.5957C77.4834 20.2461 76.459 19.4981 74.9619 19.4981C73.4649 19.4981 72.4404 20.2549 72.4404 21.3565C72.4404 22.2344 73.0947 22.751 74.6953 23.1465L76.0635 23.4824C78.6113 24.0849 79.6699 25.1084 79.6699 26.9248C79.6699 29.248 77.8193 30.7031 74.876 30.7031C72.1221 30.7031 70.2627 29.2822 70.1426 27.0361L72.045 27.0362Z" fill="white"/>
<path d="M83.6797 19.2998V21.4424H85.4014V22.9141H83.6797V27.9053C83.6797 28.6807 84.0244 29.042 84.7812 29.042C84.9856 29.0384 85.1897 29.0241 85.3926 28.999V30.4619C85.0523 30.5255 84.7064 30.5543 84.3603 30.5478C82.5273 30.5478 81.8125 29.8593 81.8125 28.1035V22.9141H80.4961V21.4424H81.8125V19.2998H83.6797Z" fill="white"/>
<path d="M86.4004 25.9697C86.4004 23.1211 88.0781 21.3311 90.6943 21.3311C93.3193 21.3311 94.9893 23.1211 94.9893 25.9697C94.9893 28.8262 93.3281 30.6084 90.6943 30.6084C88.0615 30.6084 86.4004 28.8262 86.4004 25.9697ZM93.0957 25.9697C93.0957 24.0156 92.2002 22.8623 90.6943 22.8623C89.1885 22.8623 88.2939 24.0244 88.2939 25.9697C88.2939 27.9316 89.1885 29.0762 90.6943 29.0762C92.2002 29.0762 93.0957 27.9316 93.0957 25.9697H93.0957Z" fill="white"/>
<path d="M96.5195 21.442H98.292V22.983H98.335C98.4549 22.5017 98.7369 22.0764 99.1335 21.7785C99.53 21.4806 100.017 21.3284 100.513 21.3473C100.727 21.3465 100.94 21.3698 101.149 21.4166V23.1549C100.879 23.0723 100.597 23.0343 100.314 23.0426C100.044 23.0316 99.7753 23.0792 99.5255 23.1821C99.2756 23.285 99.051 23.4408 98.867 23.6386C98.6831 23.8365 98.5441 24.0719 98.4597 24.3286C98.3752 24.5852 98.3474 24.8571 98.3779 25.1256V30.4957H96.5195L96.5195 21.442Z" fill="white"/>
<path d="M109.718 27.8369C109.468 29.4805 107.867 30.6084 105.819 30.6084C103.186 30.6084 101.551 28.8437 101.551 26.0127C101.551 23.1729 103.194 21.3311 105.741 21.3311C108.246 21.3311 109.821 23.0518 109.821 25.7969V26.4336H103.427V26.5459C103.397 26.8791 103.439 27.2148 103.549 27.5306C103.659 27.8464 103.835 28.1352 104.066 28.3778C104.296 28.6203 104.575 28.8111 104.885 28.9374C105.195 29.0637 105.528 29.1226 105.862 29.1103C106.301 29.1515 106.742 29.0498 107.119 28.8203C107.496 28.5909 107.788 28.246 107.953 27.8369L109.718 27.8369ZM103.436 25.1348H107.962C107.979 24.8352 107.933 24.5354 107.828 24.2541C107.724 23.9729 107.562 23.7164 107.354 23.5006C107.145 23.2849 106.894 23.1145 106.617 23.0003C106.339 22.8861 106.041 22.8305 105.741 22.8369C105.439 22.8351 105.139 22.8933 104.859 23.008C104.579 23.1227 104.324 23.2918 104.11 23.5054C103.895 23.7191 103.725 23.973 103.61 24.2527C103.494 24.5323 103.435 24.8321 103.436 25.1348V25.1348Z" fill="white"/>
<path d="M38.1631 8.7304C38.5527 8.70244 38.9437 8.7613 39.3078 8.90274C39.6719 9.04417 40.0001 9.26465 40.2687 9.54828C40.5372 9.8319 40.7395 10.1716 40.8609 10.5429C40.9823 10.9141 41.0198 11.3077 40.9707 11.6952C40.9707 13.6015 39.9404 14.6972 38.1631 14.6972H36.0078V8.7304H38.1631ZM36.9346 13.8534H38.0596C38.338 13.87 38.6166 13.8244 38.8751 13.7198C39.1337 13.6152 39.3656 13.4542 39.5541 13.2487C39.7426 13.0431 39.8829 12.7981 39.9647 12.5315C40.0466 12.2648 40.068 11.9833 40.0273 11.7074C40.065 11.4326 40.0415 11.1528 39.9584 10.8881C39.8753 10.6235 39.7346 10.3805 39.5466 10.1765C39.3585 9.97261 39.1277 9.8128 38.8706 9.70856C38.6135 9.60433 38.3365 9.55824 38.0596 9.57361H36.9346V13.8534Z" fill="white"/>
<path d="M42.0179 12.4438C41.9895 12.1479 42.0234 11.8493 42.1172 11.5672C42.2111 11.2852 42.3628 11.0258 42.5628 10.8059C42.7627 10.5859 43.0064 10.4101 43.2783 10.2898C43.5501 10.1696 43.8441 10.1074 44.1414 10.1074C44.4387 10.1074 44.7327 10.1696 45.0045 10.2898C45.2764 10.4101 45.5201 10.5859 45.72 10.8059C45.9199 11.0258 46.0717 11.2852 46.1655 11.5672C46.2594 11.8493 46.2932 12.1479 46.2649 12.4438C46.2938 12.74 46.2603 13.039 46.1667 13.3215C46.0731 13.6041 45.9215 13.8639 45.7215 14.0843C45.5215 14.3047 45.2776 14.4808 45.0055 14.6014C44.7333 14.7219 44.439 14.7842 44.1414 14.7842C43.8438 14.7842 43.5494 14.7219 43.2773 14.6014C43.0052 14.4808 42.7613 14.3047 42.5613 14.0843C42.3613 13.8639 42.2096 13.6041 42.1161 13.3215C42.0225 13.039 41.989 12.74 42.0179 12.4438ZM45.3509 12.4438C45.3509 11.4677 44.9124 10.8969 44.1429 10.8969C43.3704 10.8969 42.9359 11.4677 42.9359 12.4438C42.9359 13.4277 43.3704 13.9941 44.1429 13.9941C44.9124 13.9941 45.3509 13.4238 45.3509 12.4438H45.3509Z" fill="white"/>
<path d="M51.9102 14.6973H50.9883L50.0576 11.3809H49.9873L49.0606 14.6973H48.1475L46.9062 10.1943H47.8076L48.6143 13.6303H48.6807L49.6065 10.1943H50.459L51.3848 13.6303H51.4551L52.2578 10.1943H53.1465L51.9102 14.6973Z" fill="white"/>
<path d="M54.1914 10.1939H55.0469V10.9092H55.1133C55.2259 10.6523 55.4159 10.4369 55.6568 10.2931C55.8977 10.1493 56.1774 10.0842 56.457 10.107C56.6761 10.0905 56.8961 10.1235 57.1007 10.2036C57.3053 10.2837 57.4893 10.4088 57.639 10.5697C57.7886 10.7305 57.9002 10.923 57.9654 11.1328C58.0306 11.3426 58.0478 11.5644 58.0156 11.7818V14.6968H57.127V12.0049C57.127 11.2813 56.8125 10.9214 56.1553 10.9214C56.0065 10.9145 55.858 10.9398 55.72 10.9957C55.5819 11.0515 55.4576 11.1365 55.3554 11.2449C55.2533 11.3533 55.1758 11.4825 55.1283 11.6236C55.0808 11.7647 55.0643 11.9145 55.0801 12.0625V14.6968H54.1914L54.1914 10.1939Z" fill="white"/>
<path d="M59.4297 8.43652H60.3184V14.6973H59.4297V8.43652Z" fill="white"/>
<path d="M61.5549 12.4439C61.5267 12.1479 61.5605 11.8494 61.6544 11.5673C61.7483 11.2852 61.9 11.0259 62.1 10.8059C62.3 10.5859 62.5437 10.4101 62.8156 10.2898C63.0874 10.1696 63.3814 10.1074 63.6787 10.1074C63.976 10.1074 64.27 10.1696 64.5419 10.2898C64.8138 10.4101 65.0575 10.5859 65.2574 10.8059C65.4574 11.0259 65.6092 11.2852 65.7031 11.5673C65.7969 11.8494 65.8308 12.1479 65.8025 12.4439C65.8313 12.7401 65.7978 13.0391 65.7042 13.3216C65.6106 13.6042 65.4589 13.864 65.2589 14.0844C65.0589 14.3048 64.815 14.4809 64.5428 14.6014C64.2707 14.722 63.9764 14.7842 63.6787 14.7842C63.3811 14.7842 63.0868 14.722 62.8146 14.6014C62.5425 14.4809 62.2986 14.3048 62.0986 14.0844C61.8985 13.864 61.7469 13.6042 61.6532 13.3216C61.5596 13.0391 61.5261 12.7401 61.5549 12.4439ZM64.8879 12.4439C64.8879 11.4678 64.4495 10.897 63.6799 10.897C62.9075 10.897 62.4729 11.4678 62.4729 12.4439C62.4729 13.4278 62.9075 13.9942 63.6799 13.9942C64.4495 13.9942 64.8879 13.4239 64.8879 12.4439H64.8879Z" fill="white"/>
<path d="M66.7383 13.4238C66.7383 12.6133 67.3418 12.146 68.4131 12.0796L69.6328 12.0093V11.6206C69.6328 11.145 69.3184 10.8765 68.7109 10.8765C68.2148 10.8765 67.8711 11.0586 67.7725 11.377H66.9121C67.0029 10.6035 67.7305 10.1074 68.752 10.1074C69.8809 10.1074 70.5176 10.6694 70.5176 11.6206V14.6973H69.6621V14.0645H69.5918C69.4491 14.2914 69.2487 14.4765 69.0111 14.6007C68.7734 14.7249 68.5071 14.7838 68.2393 14.7715C68.0502 14.7911 67.8592 14.7709 67.6784 14.7122C67.4976 14.6536 67.3312 14.5576 67.1898 14.4307C67.0484 14.3037 66.9351 14.1485 66.8574 13.9751C66.7796 13.8017 66.739 13.6139 66.7383 13.4238ZM69.6328 13.0391V12.6626L68.5332 12.7329C67.9131 12.7744 67.6318 12.9853 67.6318 13.3823C67.6318 13.7876 67.9834 14.0234 68.4668 14.0234C68.6085 14.0378 68.7516 14.0235 68.8876 13.9814C69.0236 13.9393 69.1497 13.8703 69.2585 13.7784C69.3673 13.6866 69.4565 13.5738 69.5208 13.4468C69.5851 13.3198 69.6232 13.1811 69.6328 13.0391Z" fill="white"/>
<path d="M71.6855 12.4439C71.6855 11.021 72.417 10.1196 73.5547 10.1196C73.8361 10.1067 74.1154 10.1741 74.3599 10.314C74.6044 10.4539 74.8041 10.6605 74.9355 10.9096H75.002V8.43652H75.8906V14.6973H75.0391V13.9858H74.9688C74.8272 14.2333 74.6205 14.4374 74.3713 14.5758C74.122 14.7143 73.8396 14.782 73.5547 14.7715C72.4092 14.7715 71.6855 13.8701 71.6855 12.4439ZM72.6035 12.4439C72.6035 13.3989 73.0537 13.9737 73.8067 13.9737C74.5557 13.9737 75.0186 13.3907 75.0186 12.4478C75.0186 11.5093 74.5508 10.918 73.8067 10.918C73.0586 10.918 72.6035 11.4966 72.6035 12.4439H72.6035Z" fill="white"/>
<path d="M79.5667 12.4438C79.5384 12.1479 79.5722 11.8493 79.6661 11.5672C79.7599 11.2852 79.9117 11.0258 80.1116 10.8059C80.3116 10.5859 80.5553 10.4101 80.8271 10.2898C81.099 10.1696 81.393 10.1074 81.6902 10.1074C81.9875 10.1074 82.2815 10.1696 82.5533 10.2898C82.8252 10.4101 83.0689 10.5859 83.2688 10.8059C83.4688 11.0258 83.6205 11.2852 83.7144 11.5672C83.8082 11.8493 83.8421 12.1479 83.8138 12.4438C83.8426 12.74 83.8092 13.039 83.7156 13.3215C83.622 13.6041 83.4703 13.8639 83.2703 14.0843C83.0703 14.3047 82.8264 14.4808 82.5543 14.6014C82.2822 14.7219 81.9878 14.7842 81.6902 14.7842C81.3926 14.7842 81.0983 14.7219 80.8261 14.6014C80.554 14.4808 80.3101 14.3047 80.1101 14.0843C79.9101 13.8639 79.7585 13.6041 79.6649 13.3215C79.5713 13.039 79.5378 12.74 79.5667 12.4438ZM82.8997 12.4438C82.8997 11.4677 82.4612 10.8969 81.6917 10.8969C80.9192 10.8969 80.4847 11.4677 80.4847 12.4438C80.4847 13.4277 80.9193 13.9941 81.6917 13.9941C82.4612 13.9941 82.8997 13.4238 82.8997 12.4438Z" fill="white"/>
<path d="M85.0059 10.1939H85.8613V10.9092H85.9277C86.0404 10.6523 86.2304 10.4369 86.4713 10.2931C86.7121 10.1493 86.9919 10.0842 87.2715 10.107C87.4906 10.0905 87.7106 10.1235 87.9152 10.2036C88.1198 10.2837 88.3037 10.4088 88.4534 10.5697C88.6031 10.7305 88.7147 10.923 88.7799 11.1328C88.8451 11.3426 88.8622 11.5644 88.8301 11.7818V14.6968H87.9414V12.0049C87.9414 11.2813 87.627 10.9214 86.9697 10.9214C86.821 10.9145 86.6725 10.9398 86.5344 10.9957C86.3964 11.0515 86.272 11.1365 86.1699 11.2449C86.0678 11.3533 85.9903 11.4825 85.9427 11.6236C85.8952 11.7647 85.8788 11.9145 85.8945 12.0625V14.6968H85.0059V10.1939Z" fill="white"/>
<path d="M93.8525 9.07324V10.2148H94.8281V10.9634H93.8525V13.2788C93.8525 13.7505 94.0469 13.957 94.4893 13.957C94.6025 13.9567 94.7157 13.9498 94.8281 13.9365V14.6768C94.6685 14.7053 94.5068 14.7205 94.3447 14.7222C93.3564 14.7222 92.9629 14.3745 92.9629 13.5063V10.9633H92.248V10.2148H92.9629V9.07324H93.8525Z" fill="white"/>
<path d="M96.041 8.43652H96.9219V10.918H96.9922C97.1103 10.6587 97.3055 10.4421 97.5512 10.2977C97.7969 10.1534 98.0812 10.0883 98.3652 10.1113C98.5831 10.0995 98.801 10.1359 99.0033 10.2179C99.2056 10.2999 99.3873 10.4256 99.5354 10.586C99.6835 10.7463 99.7944 10.9373 99.8602 11.1455C99.926 11.3536 99.945 11.5737 99.916 11.79V14.6973H99.0264V12.0093C99.0264 11.29 98.6914 10.9258 98.0635 10.9258C97.9108 10.9132 97.7571 10.9342 97.6134 10.9873C97.4696 11.0404 97.3391 11.1242 97.2311 11.2329C97.1232 11.3417 97.0402 11.4727 96.9882 11.6168C96.9361 11.761 96.9162 11.9147 96.9297 12.0674V14.6973H96.0411L96.041 8.43652Z" fill="white"/>
<path d="M105.097 13.4815C104.977 13.8931 104.715 14.249 104.358 14.4872C104.002 14.7253 103.573 14.8305 103.146 14.7842C102.849 14.7921 102.555 14.7353 102.282 14.6177C102.01 14.5002 101.766 14.3248 101.568 14.1036C101.37 13.8825 101.223 13.6209 101.136 13.3371C101.049 13.0533 101.026 12.754 101.066 12.46C101.027 12.1652 101.051 11.8652 101.137 11.5805C101.224 11.2959 101.371 11.0331 101.567 10.81C101.764 10.587 102.007 10.4088 102.278 10.2876C102.55 10.1664 102.845 10.105 103.142 10.1075C104.395 10.1075 105.151 10.9635 105.151 12.3775V12.6876H101.971V12.7374C101.957 12.9026 101.978 13.069 102.032 13.2257C102.086 13.3825 102.173 13.5262 102.286 13.6476C102.399 13.7691 102.536 13.8656 102.688 13.931C102.84 13.9964 103.005 14.0292 103.171 14.0274C103.383 14.0529 103.598 14.0146 103.789 13.9174C103.98 13.8202 104.138 13.6685 104.242 13.4815L105.097 13.4815ZM101.971 12.0303H104.246C104.257 11.8792 104.236 11.7274 104.185 11.5847C104.134 11.442 104.054 11.3115 103.95 11.2016C103.845 11.0918 103.719 11.005 103.579 10.9468C103.439 10.8886 103.289 10.8604 103.137 10.8638C102.984 10.8619 102.831 10.8908 102.689 10.9487C102.546 11.0067 102.417 11.0925 102.308 11.2012C102.2 11.3099 102.114 11.4393 102.056 11.5817C101.998 11.7241 101.969 11.8766 101.971 12.0303H101.971Z" fill="white"/>
</svg>
